<svg width="32" height="32" viewBox="0 0 32 32" fill="none" xmlns="http://www.w3.org/2000/svg">
<path d="M7 28C6.73478 28 6.48043 27.8947 6.29289 27.7071C6.10536 27.5196 6 27.2652 6 27V5.00001C6.00003 4.82624 6.04534 4.65548 6.13147 4.50455C6.21759 4.35363 6.34156 4.22775 6.49115 4.13933C6.64074 4.0509 6.8108 4.00299 6.98455 4.0003C7.1583 3.99762 7.32975 4.04025 7.482 4.12401L27.482 15.124C27.6388 15.2103 27.7695 15.3372 27.8606 15.4912C27.9517 15.6453 27.9997 15.821 27.9997 16C27.9997 16.179 27.9517 16.3547 27.8606 16.5088C27.7695 16.6629 27.6388 16.7897 27.482 16.876L7.482 27.876C7.33435 27.9573 7.16855 28 7 28Z" fill="black"/>
</svg>
